<?xml version="1.0" encoding="utf-8"?>
<!-- Generator: Adobe Illustrator 22.1.0, SVG Export Plug-In . SVG Version: 6.00 Build 0)  -->
<svg version="1.1" id="Layer_1" xmlns="http://www.w3.org/2000/svg" xmlns:xlink="http://www.w3.org/1999/xlink" x="0px" y="0px"
	 viewBox="0 0 24 24" style="enable-background:new 0 0 24 24;" xml:space="preserve">
<style type="text/css">
	.st0{fill:none;}
	.st1{fill:#535453;}
</style>
<path class="st0" d="M0,0h24v24H0V0z"/>
<path class="st1" d="M12.1,2.9c-2-2-5-2.4-7.4-1.2l3.6,3.6c0.4,0.4,0.4,1,0,1.4L6.7,8.3c-0.4,0.4-1,0.4-1.4,0L1.6,4.7
	c-1.2,2.4-0.8,5.4,1.3,7.4c1.9,1.9,4.6,2.4,6.9,1.5l8,8c1,1,2.7,1,3.7,0c1-1,1-2.7,0-3.7l-7.9-7.9C14.5,7.6,14,4.8,12.1,2.9z"/>
</svg>
