<?xml version="1.0" encoding="utf-8"?>
<!-- Generator: Adobe Illustrator 22.1.0, SVG Export Plug-In . SVG Version: 6.00 Build 0)  -->
<svg version="1.1" id="Layer_1" xmlns="http://www.w3.org/2000/svg" xmlns:xlink="http://www.w3.org/1999/xlink" x="0px" y="0px"
	 viewBox="0 0 24 24" style="enable-background:new 0 0 24 24;" xml:space="preserve">
<style type="text/css">
	.st0{fill:none;}
	.st1{fill:#535453;}
</style>
<path class="st0" d="M0,0h24v24H0V0z"/>
<path class="st1" d="M8.7,15.9L4.8,12l3.9-3.9c0.4-0.4,0.4-1,0-1.4s-1-0.4-1.4,0l-4.6,4.6c-0.4,0.4-0.4,1,0,1.4l4.6,4.6
	c0.4,0.4,1,0.4,1.4,0S9.1,16.3,8.7,15.9z M15.3,15.9l3.9-3.9l-3.9-3.9c-0.4-0.4-0.4-1,0-1.4s1-0.4,1.4,0l4.6,4.6
	c0.4,0.4,0.4,1,0,1.4l-4.6,4.6c-0.4,0.4-1,0.4-1.4,0C14.9,16.9,14.9,16.3,15.3,15.9z"/>
</svg>
