<?xml version="1.0" encoding="utf-8"?>
<!-- Generator: Adobe Illustrator 22.1.0, SVG Export Plug-In . SVG Version: 6.00 Build 0)  -->
<svg version="1.1" id="Layer_1" xmlns="http://www.w3.org/2000/svg" xmlns:xlink="http://www.w3.org/1999/xlink" x="0px" y="0px"
	 viewBox="0 0 24 24" style="enable-background:new 0 0 24 24;" xml:space="preserve">
<style type="text/css">
	.st0{fill:#535453;}
</style>
<path class="st0" d="M15,7.3V3c0-0.5-0.4-1-1-1h-4C9.4,2,9,2.5,9,3v4.3c0,0.1,0.1,0.3,0.1,0.3l2.5,2.5c0.2,0.2,0.5,0.2,0.7,0
	l2.5-2.5C14.9,7.5,15,7.4,15,7.3z M7.3,9H3c-0.5,0-1,0.4-1,1v4c0,0.6,0.5,1,1,1h4.3c0.1,0,0.3-0.1,0.3-0.1l2.5-2.5
	c0.2-0.2,0.2-0.5,0-0.7L7.6,9.1C7.6,9.1,7.4,9,7.3,9z M9,16.7V21c0,0.5,0.4,1,1,1h4c0.6,0,1-0.5,1-1v-4.3c0-0.1-0.1-0.3-0.1-0.4
	l-2.5-2.5c-0.2-0.2-0.5-0.2-0.7,0l-2.5,2.5C9.1,16.4,9,16.6,9,16.7z M16.4,9.1l-2.5,2.5c-0.2,0.2-0.2,0.5,0,0.7l2.5,2.5
	c0.1,0.1,0.2,0.1,0.4,0.1H21c0.5,0,1-0.4,1-1v-4c0-0.6-0.5-1-1-1h-4.3C16.6,9,16.4,9,16.4,9.1z"/>
</svg>
