<?xml version="1.0" encoding="utf-8"?>
<!-- Generator: Adobe Illustrator 22.1.0, SVG Export Plug-In . SVG Version: 6.00 Build 0)  -->
<svg version="1.1" id="Layer_1" xmlns="http://www.w3.org/2000/svg" xmlns:xlink="http://www.w3.org/1999/xlink" x="0px" y="0px"
	 viewBox="0 0 24 24" style="enable-background:new 0 0 24 24;" xml:space="preserve">
<style type="text/css">
	.st0{fill:none;}
	.st1{fill:#535453;}
</style>
<path class="st0" d="M0,0h24v24H0V0z"/>
<path class="st1" d="M6.6,8C6.1,7.5,5.3,7.6,5,8.2c-0.3,0.5-0.5,1-0.7,1.6c-0.2,0.6,0.3,1.3,1,1.3h0c0.4,0,0.8-0.3,0.9-0.7
	c0.1-0.4,0.3-0.8,0.5-1.2C6.9,8.8,6.9,8.3,6.6,8z M5.3,13L5.3,13c-0.7,0-1.2,0.6-1,1.3c0.2,0.5,0.4,1.1,0.7,1.6
	c0.3,0.6,1.1,0.7,1.6,0.2c0.3-0.3,0.4-0.8,0.2-1.1c-0.2-0.4-0.4-0.8-0.5-1.2C6.1,13.3,5.7,13,5.3,13z M8.2,19c0.5,0.3,1,0.5,1.6,0.7
	c0.6,0.2,1.2-0.3,1.2-1v0c0-0.4-0.3-0.8-0.7-0.9c-0.4-0.1-0.8-0.3-1.1-0.5c-0.4-0.2-0.9-0.1-1.2,0.2l0,0C7.5,17.9,7.6,18.7,8.2,19z
	 M13,4.1V3.4c0-0.9-1.1-1.3-1.7-0.7L9.2,4.8c-0.4,0.4-0.4,1,0,1.4l2.1,2.1C11.9,9,13,8.5,13,7.6V6.1c2.8,0.5,5,2.9,5,5.9
	c0,2.7-1.8,5-4.3,5.8c-0.4,0.1-0.7,0.5-0.7,0.9v0c0,0.6,0.6,1.1,1.2,1c3.3-1,5.8-4,5.8-7.7C20,7.9,17,4.6,13,4.1z"/>
</svg>
