<?xml version="1.0" encoding="utf-8"?>
<!-- Generator: Adobe Illustrator 22.1.0, SVG Export Plug-In . SVG Version: 6.00 Build 0)  -->
<svg version="1.1" id="Layer_1" xmlns="http://www.w3.org/2000/svg" xmlns:xlink="http://www.w3.org/1999/xlink" x="0px" y="0px"
	 viewBox="0 0 24 24" style="enable-background:new 0 0 24 24;" xml:space="preserve">
<style type="text/css">
	.st0{fill:none;}
	.st1{fill:#535453;}
</style>
<path class="st0" d="M0,0h24v24H0V0z"/>
<path class="st1" d="M14.8,4.8l-2.1-2.1C12.1,2.1,11,2.5,11,3.4v0.7C7.1,4.6,4,7.9,4,12c0,3.6,2.4,6.7,5.8,7.7
	c0.6,0.2,1.2-0.3,1.2-1v0c0-0.4-0.3-0.8-0.7-0.9C7.8,17,6,14.7,6,12c0-3,2.2-5.4,5-5.9v1.5c0,0.9,1.1,1.3,1.7,0.7l2.1-2.1
	C15.2,5.9,15.2,5.2,14.8,4.8z M19.7,9.8c-0.2-0.6-0.4-1.1-0.7-1.6c-0.3-0.6-1.1-0.7-1.6-0.2l0,0c-0.3,0.3-0.4,0.8-0.2,1.2
	c0.2,0.4,0.4,0.8,0.5,1.2c0.1,0.4,0.5,0.7,0.9,0.7h0C19.4,11,19.9,10.4,19.7,9.8z M13,18.7L13,18.7c0,0.7,0.6,1.2,1.2,1
	c0.6-0.2,1.1-0.4,1.6-0.7c0.6-0.3,0.7-1.1,0.2-1.6l0,0c-0.3-0.3-0.8-0.4-1.2-0.2c-0.4,0.2-0.8,0.4-1.2,0.5
	C13.3,17.9,13,18.3,13,18.7z M17.4,16c0.5,0.5,1.3,0.4,1.6-0.2c0.3-0.5,0.5-1,0.7-1.6c0.2-0.6-0.3-1.2-1-1.2h0
	c-0.4,0-0.8,0.3-0.9,0.7c-0.1,0.4-0.3,0.8-0.5,1.2C17.1,15.3,17.1,15.7,17.4,16z"/>
</svg>
